<svg width="430" height="1313" viewBox="0 0 430 1313" fill="none" xmlns="http://www.w3.org/2000/svg">
<g clip-path="url(#clip0_162_1647)">
<rect width="430" height="1313" fill="#371F7D"/>
<g clip-path="url(#clip1_162_1647)">
<rect width="96" height="198.128" transform="translate(0 759)" fill="#602BFF"/>
</g>
<path fill-rule="evenodd" clip-rule="evenodd" d="M400.011 815.274C390.973 808.495 378.151 810.327 371.372 819.364C364.593 828.402 366.424 841.224 375.462 848.003L446.374 901.192C455.412 907.971 468.234 906.14 475.013 897.102C481.792 888.065 479.961 875.243 470.923 868.464L400.011 815.274ZM346.823 852.093C353.602 843.055 366.424 841.224 375.462 848.003L446.374 901.192C455.412 907.971 457.243 920.793 450.464 929.831C443.685 938.869 430.863 940.7 421.825 933.921L350.913 880.732C341.875 873.953 340.044 861.131 346.823 852.093ZM322.274 884.822C329.053 875.784 341.875 873.953 350.913 880.732L421.825 933.921C430.863 940.7 432.694 953.522 425.915 962.56C419.136 971.598 406.314 973.429 397.277 966.65L326.364 913.461C317.327 906.682 315.495 893.86 322.274 884.822Z" fill="#FF4365"/>
<path d="M329.476 282.626L507.424 340.336L368.472 465.589L329.476 282.626Z" fill="#D7FF81"/>
<ellipse cy="438.912" rx="109" ry="110.912" fill="#FF4365"/>
</g>
<defs>
<clipPath id="clip0_162_1647">
<rect width="430" height="1313" fill="white"/>
</clipPath>
<clipPath id="clip1_162_1647">
<rect width="96" height="198.128" fill="white" transform="translate(0 759)"/>
</clipPath>
</defs>
</svg>
